# xmcd
#
# Track frame offsets:
# 150
# 41862
# 78948
# 135335
# 201175
# 201831
# 233858
# 259390
# 326472
#
# Disc length: 4796 seconds
#
#
# Revision: 0
# Processed by: cddbd v1.5.2PL0 Copyright (c) Steve Scherf et al.
# Submitted via: FreeRIP 2.943 
#
DISCID=7c12ba09
DTITLE=Cortisol - S-12
DYEAR=2006
DGENRE=Darkwave
TTITLE0=the Myth of Eager Architecture
TTITLE1=Cortisol
TTITLE2=Infinite Supply of Nothing
TTITLE3=Specialist in Conspiracy
TTITLE4=untitled
TTITLE5=Infinite Supply of Jobs of All Sorts
TTITLE6=Carnac Myotonia
TTITLE7=Keine Arme, Keine Schokolade
TTITLE8=Interlude-Protojam
EXTD=qq
EXTT0=
EXTT1=
EXTT2=
EXTT3=
EXTT4=
EXTT5=
EXTT6=
EXTT7=
EXTT8=
PLAYORDER=
